<?xml version="1.0" encoding="utf-8"?>
<!-- Generator: Adobe Illustrator 24.3.0, SVG Export Plug-In . SVG Version: 6.00 Build 0)  -->
<svg version="1.1" id="Layer_1" xmlns="http://www.w3.org/2000/svg" xmlns:xlink="http://www.w3.org/1999/xlink" x="0px" y="0px"
	 viewBox="0 0 720 720" style="enable-background:new 0 0 720 720;" xml:space="preserve">
<style type="text/css">
	.st0{fill:#FFFFFF;}
	.st1{fill:#1D3867;}
	.st2{fill:#B42226;}
</style>
<g>
	<path class="st0" d="M360,65.73c-5.4,10.7-12.04,20.94-20.18,30.38c-50.82,58.9-119.2,78.64-195.82,9.55v401.58
		c0.83,45.59,35.49,61.02,67.49,73.03l25.04,7.1c37.54,4.85,73.99,14.16,123.46,66.26c49.48-52.1,85.93-61.41,123.47-66.26
		l25.04-7.1c32.01-12.01,66.66-27.44,67.5-73.03V105.66c-76.62,69.09-144.99,49.35-195.82-9.55C372.03,86.67,365.4,76.43,360,65.73"
		/>
	<path class="st1" d="M380.5,121.66c-7.67-8.78-13.92-18.31-18.93-28.29c-5.02,9.98-11.26,19.52-18.93,28.29
		c-46.55,53.25-125.2,60.26-179.34,17.41V493.4c0.76,41.23,32.5,55.17,61.81,66.03l22.93,6.42c34.44,4.4,67.88,12.83,113.32,60.17
		c0.07-0.09,0.13-0.18,0.2-0.27c0.07,0.09,0.13,0.18,0.2,0.27c45.44-47.34,78.88-55.77,113.32-60.17l22.93-6.42
		c29.31-10.86,61.06-24.81,61.82-66.03V139.06C505.7,181.92,427.04,174.91,380.5,121.66z"/>
	<g>
		<path class="st0" d="M410.13,162.21c0,0-60.99-8.89-90.2,38.26c-28.83,46.54-8.48,88.86-8.48,88.86s61.25,10.3,93.77-39.81
			C432.23,207.91,410.13,162.21,410.13,162.21z"/>
		<g>
			<path class="st1" d="M344.68,197.95L372,211.92c1.04-1.1,2.09-2.2,3.15-3.27l-27.37-14C346.73,195.73,345.7,196.83,344.68,197.95
				z"/>
			<path class="st1" d="M335.47,209.66l26.61,13.61c1.03-1.28,2.09-2.56,3.17-3.82l-26.93-13.77
				C337.34,206.97,336.39,208.3,335.47,209.66z"/>
			<path class="st1" d="M328.3,221.84l25.67,13.13c0.74-1.27,1.49-2.51,2.27-3.72l-25.89-13.24
				C329.65,219.28,328.96,220.55,328.3,221.84z"/>
			<path class="st1" d="M371.81,174.75c-1.33,0.89-2.69,1.83-4.05,2.81l26.38,13.49c1.23-1.05,2.44-2.06,3.62-3.03L371.81,174.75z"
				/>
			<path class="st1" d="M355.25,187.5l27.26,13.94c1.25-1.18,2.5-2.33,3.73-3.45l-27.07-13.85
				C357.86,185.22,356.55,186.35,355.25,187.5z"/>
		</g>
		<g>
			<path class="st1" d="M385.5,184c15.54-13.57,28.29-22.39,28.29-22.39l-2.33-1.56c0,0-14.06,4.95-32.7,20.48L385.5,184z"/>
			<path class="st1" d="M340.01,225c-18.95,30.2-30.67,65.01-30.67,65.01l2.78,1.68c0,0,14.62-35.69,33.42-63.93L340.01,225z"/>
		</g>
	</g>
	<g>
		<g>
			<polygon class="st0" points="516.31,182.9 522.91,201.67 543.73,201.67 527.12,214.91 533.45,235.14 516.31,222.06 
				499.18,234.35 505.77,214.77 489.7,201.67 509.74,201.67 			"/>
			<polygon class="st0" points="516.31,244.27 522.91,263.05 543.73,263.05 527.12,276.27 533.45,296.51 516.31,283.42 
				499.18,295.72 505.77,276.15 489.7,263.05 509.74,263.05 			"/>
			<polygon class="st0" points="450.42,244.27 457.02,263.05 477.82,263.05 461.22,276.27 467.56,296.51 450.42,283.42 
				433.3,295.72 439.88,276.15 423.8,263.05 443.84,263.05 			"/>
			<polygon class="st0" points="449.89,182.9 456.48,201.67 477.32,201.67 460.71,214.91 467.02,235.14 449.89,222.06 
				432.77,234.35 439.36,214.77 423.28,201.67 443.31,201.67 			"/>
		</g>
		<g>
			<polygon class="st0" points="272.44,182.9 279.03,201.67 299.85,201.67 283.25,214.91 289.58,235.14 272.44,222.06 
				255.31,234.35 261.89,214.77 245.83,201.67 265.86,201.67 			"/>
			<polygon class="st0" points="272.44,244.27 279.03,263.05 299.85,263.05 283.25,276.27 289.58,296.51 272.44,283.42 
				255.31,295.72 261.89,276.15 245.83,263.05 265.86,263.05 			"/>
			<polygon class="st0" points="206.54,244.27 213.14,263.05 233.95,263.05 217.35,276.27 223.68,296.51 206.54,283.42 
				189.42,295.72 196,276.15 179.92,263.05 199.96,263.05 			"/>
			<polygon class="st0" points="206.02,182.9 212.61,201.67 233.44,201.67 216.83,214.91 223.15,235.14 206.02,222.06 
				188.89,234.35 195.48,214.77 179.4,201.67 199.43,201.67 			"/>
		</g>
	</g>
	<path class="st0" d="M182.93,310.22v170.17c0.69,37.87,29.28,50.68,55.69,60.65l20.66,5.9c31.03,4.04,61.16,11.79,102.1,55.27
		c0.06-0.09,0.12-0.17,0.18-0.25c0.06,0.08,0.12,0.16,0.18,0.25c40.94-43.48,71.07-51.23,102.1-55.27l20.66-5.9
		c26.41-9.98,55.01-22.79,55.69-60.65V310.22H182.93z"/>
	<path class="st2" d="M372.15,332.74h-31.59h-11.3v26.95h11.3v49.63v26.95v40.8v13.59v23.73v1.23c-6.94-0.8-12.9-1.23-12.9-1.23
		v24.39c0,0,14.99,1.6,25.59,4.8c8.56,2.58,29.58,12.39,29.58,12.39v-26.99c0,0-4.07-2.59-10.69-5.47v-9.12v-37.32v-40.8h16.52
		l3.96,11.11h17.75v-11.11V422.8V422v-12.68v-11.91h-17.75l-4.24,11.91h-16.23v-49.63h20.79l6.8,15.83h21.39v-15.83v-9.56v-17.39
		H372.15z"/>
	<path class="st2" d="M308.98,332.74h-31.58h-9.2v26.95h9.2v65.86l-32.98-94.33v-0.07h-31.58h-9v26.95h9v74.48v44.13
		c-7.25-0.37-13.58-0.38-13.58-0.38l2.19,27.43c0,0,15.09,0.6,25.94,3.35c8.76,2.22,30.61,11.58,30.61,11.58l-2.43-30.35
		c0,0-4.29-2.59-11.15-5.3v-50.46v-5.67l34.16,97.7l30.41,9.4v-0.16v-17.96V359.69h8.79v-26.95H308.98z"/>
	<path class="st2" d="M497.02,444.36v38.33c-8.32,1.86-17.38,4.02-24.93,6.14v-2.56v-30.05v-96.49l9.19-4.2v-22.78h-9.19H456.7h-0.8
		h-15.39h-9.2v22.78l9.2,4.2v96.49v30.05v15.16c-5.37,2.78-9.94,5.49-13.59,7.81v30.8c9.99-5.76,34.82-19.85,46.91-24.71
		c23.19-9.33,48.13-11.53,48.13-11.53v-2.36v-23.96v-33.11H497.02z"/>
</g>
</svg>
