<?xml version="1.0" encoding="utf-8"?>
<!-- Generator: Adobe Illustrator 22.1.0, SVG Export Plug-In . SVG Version: 6.00 Build 0)  -->
<svg version="1.1" id="Layer_1" xmlns="http://www.w3.org/2000/svg" xmlns:xlink="http://www.w3.org/1999/xlink" x="0px" y="0px"
	 viewBox="0 0 56.7 56.7" style="enable-background:new 0 0 56.7 56.7;" xml:space="preserve">
<style type="text/css">
	.st0{fill:#010101;}
</style>
<path class="st0" d="M44.6,42.4v-11c0-5.9-3.1-8.6-7.4-8.6c-3.4,0-4.9,1.9-5.8,3.2v-2.7h-6.4c0,1.8,0,19.2,0,19.2h6.4V31.7
	c0-0.6,0-1.1,0.2-1.6c0.5-1.1,1.5-2.3,3.3-2.3c2.4,0,3.2,1.8,3.2,4.3v10.3H44.6L44.6,42.4z M18.1,20.6c2.3,0,3.6-1.5,3.6-3.3
	c0-1.9-1.4-3.3-3.6-3.3s-3.6,1.3-3.6,3.2C14.5,19.1,15.9,20.6,18.1,20.6L18.1,20.6z M28.1,55.3c-14.9,0-26.9-11.9-26.9-26.6
	S13.3,2,28.1,2S55,13.9,55,28.6S43,55.3,28.1,55.3z M21.3,42.4V23.2h-6.4v19.2H21.3z"/>
</svg>
