<?xml version="1.0" encoding="utf-8"?>
<!-- Generator: Adobe Illustrator 22.1.0, SVG Export Plug-In . SVG Version: 6.00 Build 0)  -->
<svg version="1.1" id="Layer_1" xmlns="http://www.w3.org/2000/svg" xmlns:xlink="http://www.w3.org/1999/xlink" x="0px" y="0px"
	 width="12.5px" height="12.5px" viewBox="0 0 12.5 12.5" style="enable-background:new 0 0 12.5 12.5;" xml:space="preserve">
<path d="M0,1.6V11c0,0.8,0.7,1.5,1.6,1.5h9.3c0.9,0,1.6-0.7,1.6-1.6V1.6c0-0.9-0.7-1.6-1.6-1.6H1.6C0.7,0,0,0.7,0,1.6z M0.4,1.6
	c0-0.6,0.5-1.1,1.1-1.1h9.3c0.6,0,1.1,0.5,1.1,1.1V11c0,0.6-0.5,1.1-1.1,1.1H1.6c-0.6,0-1.1-0.5-1.1-1.1C0.4,11,0.4,1.6,0.4,1.6z
	 M2,6.1c0,0.1-0.1,0.1-0.1,0.2c0,0.1,0,0.2,0.1,0.2l3.7,2.8c0,0.1,0.1,0.1,0.1,0.1c0,0,0,0,0.1,0c0.1-0.1,0.1-0.1,0.1-0.2V6.6
	l3.5,2.7c0,0.1,0.1,0.1,0.1,0.1c0,0,0,0,0.1,0c0.1-0.1,0.1-0.1,0.1-0.2V8.1c0-0.2-0.1-0.3-0.2-0.3c-0.1,0-0.2,0.1-0.2,0.3v0.6
	L6.5,6.3l3.1-2.4v2.9C9.6,6.9,9.7,7,9.9,7s0.2-0.1,0.2-0.3V3.4c0-0.1,0-0.2-0.1-0.2c-0.1,0-0.1,0-0.2,0L6.2,5.9V3.4
	c0-0.1,0-0.2-0.1-0.2s-0.1,0-0.2,0L2,6.1z M2.5,6.3l3.1-2.4v4.8L2.5,6.3z"/>
</svg>
