<?xml version="1.0" encoding="utf-8"?>
<!-- Generator: Adobe Illustrator 22.1.0, SVG Export Plug-In . SVG Version: 6.00 Build 0)  -->
<svg version="1.1" id="Layer_1" xmlns="http://www.w3.org/2000/svg" xmlns:xlink="http://www.w3.org/1999/xlink" x="0px" y="0px"
	 width="25px" height="25px" viewBox="0 0 25 25" style="enable-background:new 0 0 25 25;" xml:space="preserve">
<path d="M0,3.2v18.7C0,23.6,1.4,25,3.2,25h18.7c1.8,0,3.2-1.4,3.2-3.2V3.2C25,1.4,23.6,0,21.8,0H3.2C1.4,0,0,1.4,0,3.2z M0.9,3.2
	c0-1.2,1-2.3,2.3-2.3h18.7c1.2,0,2.3,1,2.3,2.3v18.7c0,1.2-1,2.3-2.3,2.3H3.2c-1.2,0-2.3-1-2.3-2.3V3.2z M4,12.1
	c-0.1,0.1-0.2,0.2-0.2,0.4c0,0.1,0.1,0.3,0.2,0.4l7.5,5.7c0.1,0.1,0.2,0.1,0.3,0.1c0.1,0,0.1,0,0.2,0c0.2-0.1,0.3-0.2,0.3-0.4v-5.1
	l7.1,5.4c0.1,0.1,0.2,0.1,0.3,0.1c0.1,0,0.1,0,0.2,0c0.2-0.1,0.3-0.2,0.3-0.4v-2.1c0-0.3-0.2-0.5-0.5-0.5c-0.3,0-0.5,0.2-0.5,0.5
	v1.2L13,12.5l6.3-4.8v5.8c0,0.3,0.2,0.5,0.5,0.5c0.3,0,0.5-0.2,0.5-0.5V6.8c0-0.2-0.1-0.3-0.3-0.4c-0.2-0.1-0.3-0.1-0.5,0l-7.1,5.4
	V6.8c0-0.2-0.1-0.3-0.3-0.4c-0.2-0.1-0.3-0.1-0.5,0L4,12.1z M5.1,12.5l6.3-4.8v9.6L5.1,12.5z"/>
</svg>
